<?xml version="1.0" encoding="UTF-8" standalone="no"?>
<!DOCTYPE svg PUBLIC "-//W3C//DTD SVG 1.1//EN"
 "http://www.w3.org/Graphics/SVG/1.1/DTD/svg11.dtd">
<!-- Generated by graphviz version 2.43.0 (0)
 -->
<!-- Title: %3 Pages: 1 -->
<svg width="755pt" height="116pt"
 viewBox="0.00 0.00 755.20 116.00" xmlns="http://www.w3.org/2000/svg" xmlns:xlink="http://www.w3.org/1999/xlink">
<g id="graph0" class="graph" transform="scale(1 1) rotate(0) translate(4 112)">
<title>%3</title>
<!-- Start -->
<!-- FAFB -->
<g id="node3" class="node start">
<title>FAFB</title>
<path fill="#586e75" stroke="#586e75" d="M188.6,-71C188.6,-71 52.6,-71 52.6,-71 46.6,-71 40.6,-65 40.6,-59 40.6,-59 40.6,-47 40.6,-47 40.6,-41 46.6,-35 52.6,-35 52.6,-35 188.6,-35 188.6,-35 194.6,-35 200.6,-41 200.6,-47 200.6,-47 200.6,-59 200.6,-59 200.6,-65 194.6,-71 188.6,-71"/>
<text text-anchor="middle" x="120.6" y="-49.3" font-family="Inter,Arial" font-size="14.00" fill="#ffffff">Labelled[A]×Labelled[B]</text>
</g>
<!-- Start&#45;&gt;FAFB -->
<g id="edge14" class="edge start">
<title>Start&#45;&gt;FAFB</title>
<path fill="none" stroke="#586e75" stroke-width="2" d="M4.11,-53C7.57,-53 17.53,-53 30.26,-53"/>
<polygon fill="#586e75" stroke="#586e75" stroke-width="2" points="30.46,-56.5 40.46,-53 30.46,-49.5 30.46,-56.5"/>
</g>
<!-- Goal -->
<!-- FA -->
<g id="node4" class="node">
<title>FA</title>
<path fill="#ffffff" stroke="#586e75" d="M309.6,-108C309.6,-108 249.6,-108 249.6,-108 243.6,-108 237.6,-102 237.6,-96 237.6,-96 237.6,-84 237.6,-84 237.6,-78 243.6,-72 249.6,-72 249.6,-72 309.6,-72 309.6,-72 315.6,-72 321.6,-78 321.6,-84 321.6,-84 321.6,-96 321.6,-96 321.6,-102 315.6,-108 309.6,-108"/>
<text text-anchor="middle" x="279.6" y="-86.3" font-family="Inter,Arial" font-size="14.00" fill="#586e75">Labelled[A]</text>
</g>
<!-- FAFB&#45;&gt;FA -->
<g id="edge4" class="edge">
<title>FAFB&#45;&gt;FA</title>
<path fill="none" stroke="#586e75" d="M198.26,-71.07C208.21,-73.41 218.19,-75.76 227.58,-77.98"/>
<polygon fill="#586e75" stroke="#586e75" points="226.96,-81.43 237.5,-80.31 228.57,-74.61 226.96,-81.43"/>
</g>
<!-- FB -->
<g id="node5" class="node">
<title>FB</title>
<path fill="#ffffff" stroke="#586e75" d="M309.6,-36C309.6,-36 249.6,-36 249.6,-36 243.6,-36 237.6,-30 237.6,-24 237.6,-24 237.6,-12 237.6,-12 237.6,-6 243.6,0 249.6,0 249.6,0 309.6,0 309.6,0 315.6,0 321.6,-6 321.6,-12 321.6,-12 321.6,-24 321.6,-24 321.6,-30 315.6,-36 309.6,-36"/>
<text text-anchor="middle" x="279.6" y="-14.3" font-family="Inter,Arial" font-size="14.00" fill="#586e75">Labelled[B]</text>
</g>
<!-- FAFB&#45;&gt;FB -->
<g id="edge5" class="edge">
<title>FAFB&#45;&gt;FB</title>
<path fill="none" stroke="#586e75" d="M201.02,-35.29C210.09,-33.27 219.15,-31.25 227.71,-29.35"/>
<polygon fill="#586e75" stroke="#586e75" points="228.5,-32.76 237.49,-27.16 226.97,-25.92 228.5,-32.76"/>
</g>
<!-- FA&#45;&gt;FB -->
<!-- XX -->
<g id="node6" class="node">
<title>XX</title>
<path fill="#ffffff" stroke="#586e75" d="M441.6,-108C441.6,-108 370.6,-108 370.6,-108 364.6,-108 358.6,-102 358.6,-96 358.6,-96 358.6,-84 358.6,-84 358.6,-78 364.6,-72 370.6,-72 370.6,-72 441.6,-72 441.6,-72 447.6,-72 453.6,-78 453.6,-84 453.6,-84 453.6,-96 453.6,-96 453.6,-102 447.6,-108 441.6,-108"/>
<text text-anchor="middle" x="406.1" y="-86.3" font-family="Inter,Arial" font-size="14.00" fill="#586e75">String×String</text>
</g>
<!-- FA&#45;&gt;XX -->
<g id="edge6" class="edge">
<title>FA&#45;&gt;XX</title>
<path fill="none" stroke="#586e75" d="M321.71,-90C330.25,-90 339.4,-90 348.39,-90"/>
<polygon fill="#586e75" stroke="#586e75" points="348.43,-93.5 358.43,-90 348.43,-86.5 348.43,-93.5"/>
</g>
<!-- AB -->
<g id="node7" class="node">
<title>AB</title>
<path fill="#ffffff" stroke="#586e75" d="M421.1,-36C421.1,-36 391.1,-36 391.1,-36 385.1,-36 379.1,-30 379.1,-24 379.1,-24 379.1,-12 379.1,-12 379.1,-6 385.1,0 391.1,0 391.1,0 421.1,0 421.1,0 427.1,0 433.1,-6 433.1,-12 433.1,-12 433.1,-24 433.1,-24 433.1,-30 427.1,-36 421.1,-36"/>
<text text-anchor="middle" x="406.1" y="-14.3" font-family="Inter,Arial" font-size="14.00" fill="#586e75">A×B</text>
</g>
<!-- FA&#45;&gt;AB -->
<g id="edge7" class="edge">
<title>FA&#45;&gt;AB</title>
<path fill="none" stroke="#586e75" d="M312.02,-71.83C329.56,-61.69 351.48,-49.01 369.63,-38.51"/>
<polygon fill="#586e75" stroke="#586e75" points="371.84,-41.28 378.74,-33.24 368.34,-35.22 371.84,-41.28"/>
</g>
<!-- FB&#45;&gt;XX -->
<g id="edge8" class="edge">
<title>FB&#45;&gt;XX</title>
<path fill="none" stroke="#586e75" d="M312.02,-36.17C328.09,-45.46 347.83,-56.88 364.99,-66.8"/>
<polygon fill="#586e75" stroke="#586e75" points="363.28,-69.86 373.69,-71.84 366.79,-63.8 363.28,-69.86"/>
</g>
<!-- FB&#45;&gt;AB -->
<g id="edge9" class="edge">
<title>FB&#45;&gt;AB</title>
<path fill="none" stroke="#586e75" d="M321.71,-18C336.87,-18 353.93,-18 368.65,-18"/>
<polygon fill="#586e75" stroke="#586e75" points="368.9,-21.5 378.9,-18 368.9,-14.5 368.9,-21.5"/>
</g>
<!-- XX&#45;&gt;AB -->
<!-- X -->
<!-- XX&#45;&gt;X -->
<!-- C -->
<g id="node10" class="node">
<title>C</title>
<path fill="#ffffff" stroke="#586e75" d="M572.6,-36C572.6,-36 542.6,-36 542.6,-36 536.6,-36 530.6,-30 530.6,-24 530.6,-24 530.6,-12 530.6,-12 530.6,-6 536.6,0 542.6,0 542.6,0 572.6,0 572.6,0 578.6,0 584.6,-6 584.6,-12 584.6,-12 584.6,-24 584.6,-24 584.6,-30 578.6,-36 572.6,-36"/>
<text text-anchor="middle" x="557.6" y="-14.3" font-family="Inter,Arial" font-size="14.00" fill="#586e75">C</text>
</g>
<!-- AB&#45;&gt;C -->
<g id="edge11" class="edge">
<title>AB&#45;&gt;C</title>
<path fill="none" stroke="#586e75" d="M433.14,-18C457.22,-18 493.24,-18 520.16,-18"/>
<polygon fill="#586e75" stroke="#586e75" points="520.36,-21.5 530.36,-18 520.36,-14.5 520.36,-21.5"/>
<text text-anchor="middle" x="492.1" y="-21.2" font-family="Inter,Arial" font-size="11.00" fill="#586e75">f</text>
</g>
<!-- FC -->
<g id="node8" class="node goal">
<title>FC</title>
<path fill="#586e75" stroke="#586e75" d="M694.6,-71C694.6,-71 633.6,-71 633.6,-71 627.6,-71 621.6,-65 621.6,-59 621.6,-59 621.6,-47 621.6,-47 621.6,-41 627.6,-35 633.6,-35 633.6,-35 694.6,-35 694.6,-35 700.6,-35 706.6,-41 706.6,-47 706.6,-47 706.6,-59 706.6,-59 706.6,-65 700.6,-71 694.6,-71"/>
<text text-anchor="middle" x="664.1" y="-49.3" font-family="Inter,Arial" font-size="14.00" fill="#ffffff">Labelled[C]</text>
</g>
<!-- FC&#45;&gt;Goal -->
<g id="edge15" class="edge goal">
<title>FC&#45;&gt;Goal</title>
<path fill="none" stroke="#586e75" stroke-width="2" d="M706.61,-53C716.58,-53 726.39,-53 733.51,-53"/>
<polygon fill="#586e75" stroke="#586e75" stroke-width="2" points="733.56,-56.5 743.56,-53 733.56,-49.5 733.56,-56.5"/>
</g>
<!-- X&#45;&gt;FC -->
<!-- X&#45;&gt;C -->
<!-- C&#45;&gt;FC -->
</g>
</svg>
