<?xml version="1.0" encoding="UTF-8" standalone="no"?>
<!DOCTYPE svg PUBLIC "-//W3C//DTD SVG 1.1//EN"
 "http://www.w3.org/Graphics/SVG/1.1/DTD/svg11.dtd">
<!-- Generated by graphviz version 2.43.0 (0)
 -->
<!-- Title: %3 Pages: 1 -->
<svg width="608pt" height="116pt"
 viewBox="0.00 0.00 608.20 116.00" xmlns="http://www.w3.org/2000/svg" xmlns:xlink="http://www.w3.org/1999/xlink">
<g id="graph0" class="graph" transform="scale(1 1) rotate(0) translate(4 112)">
<title>%3</title>
<!-- Start -->
<!-- FAFB -->
<g id="node3" class="node start,disabled">
<title>FAFB</title>
<path fill="#d0dce3" stroke="#d0dce3" d="M102.6,-71C102.6,-71 52.6,-71 52.6,-71 46.6,-71 40.6,-65 40.6,-59 40.6,-59 40.6,-47 40.6,-47 40.6,-41 46.6,-35 52.6,-35 52.6,-35 102.6,-35 102.6,-35 108.6,-35 114.6,-41 114.6,-47 114.6,-47 114.6,-59 114.6,-59 114.6,-65 108.6,-71 102.6,-71"/>
<text text-anchor="middle" x="77.6" y="-49.3" font-family="Inter,Arial" font-size="14.00" fill="#ffffff">F[A]×F[B]</text>
</g>
<!-- Start&#45;&gt;FAFB -->
<g id="edge14" class="edge start,disabled">
<title>Start&#45;&gt;FAFB</title>
<path fill="none" stroke="#d0dce3" stroke-width="2" d="M3.63,-53C6.65,-53 17.57,-53 30.07,-53"/>
<polygon fill="#d0dce3" stroke="#d0dce3" stroke-width="2" points="30.32,-56.5 40.32,-53 30.32,-49.5 30.32,-56.5"/>
</g>
<!-- Goal -->
<!-- FA -->
<g id="node4" class="node disabled">
<title>FA</title>
<path fill="#ffffff" stroke="#d0dce3" d="M193.6,-108C193.6,-108 163.6,-108 163.6,-108 157.6,-108 151.6,-102 151.6,-96 151.6,-96 151.6,-84 151.6,-84 151.6,-78 157.6,-72 163.6,-72 163.6,-72 193.6,-72 193.6,-72 199.6,-72 205.6,-78 205.6,-84 205.6,-84 205.6,-96 205.6,-96 205.6,-102 199.6,-108 193.6,-108"/>
<text text-anchor="middle" x="178.6" y="-86.3" font-family="Inter,Arial" font-size="14.00" fill="#d0dce3">F[A]</text>
</g>
<!-- FAFB&#45;&gt;FA -->
<g id="edge4" class="edge disabled">
<title>FAFB&#45;&gt;FA</title>
<path fill="none" stroke="#d0dce3" d="M114.62,-66.46C123.46,-69.77 132.92,-73.3 141.75,-76.6"/>
<polygon fill="#d0dce3" stroke="#d0dce3" points="140.79,-79.98 151.38,-80.2 143.24,-73.42 140.79,-79.98"/>
</g>
<!-- FB -->
<g id="node5" class="node disabled">
<title>FB</title>
<path fill="#ffffff" stroke="#d0dce3" d="M193.6,-36C193.6,-36 163.6,-36 163.6,-36 157.6,-36 151.6,-30 151.6,-24 151.6,-24 151.6,-12 151.6,-12 151.6,-6 157.6,0 163.6,0 163.6,0 193.6,0 193.6,0 199.6,0 205.6,-6 205.6,-12 205.6,-12 205.6,-24 205.6,-24 205.6,-30 199.6,-36 193.6,-36"/>
<text text-anchor="middle" x="178.6" y="-14.3" font-family="Inter,Arial" font-size="14.00" fill="#d0dce3">F[B]</text>
</g>
<!-- FAFB&#45;&gt;FB -->
<g id="edge5" class="edge disabled">
<title>FAFB&#45;&gt;FB</title>
<path fill="none" stroke="#d0dce3" d="M114.62,-40.27C123.46,-37.14 132.92,-33.8 141.75,-30.68"/>
<polygon fill="#d0dce3" stroke="#d0dce3" points="143.12,-33.9 151.38,-27.27 140.79,-27.3 143.12,-33.9"/>
</g>
<!-- FA&#45;&gt;FB -->
<!-- XX -->
<g id="node6" class="node">
<title>XX</title>
<path fill="#ffffff" stroke="#586e75" d="M325.6,-108C325.6,-108 254.6,-108 254.6,-108 248.6,-108 242.6,-102 242.6,-96 242.6,-96 242.6,-84 242.6,-84 242.6,-78 248.6,-72 254.6,-72 254.6,-72 325.6,-72 325.6,-72 331.6,-72 337.6,-78 337.6,-84 337.6,-84 337.6,-96 337.6,-96 337.6,-102 331.6,-108 325.6,-108"/>
<text text-anchor="middle" x="290.1" y="-86.3" font-family="Inter,Arial" font-size="14.00" fill="#586e75">String×String</text>
</g>
<!-- FA&#45;&gt;XX -->
<g id="edge6" class="edge disabled">
<title>FA&#45;&gt;XX</title>
<path fill="none" stroke="#d0dce3" d="M205.83,-90C213.91,-90 223.15,-90 232.46,-90"/>
<polygon fill="#d0dce3" stroke="#d0dce3" points="232.54,-93.5 242.54,-90 232.54,-86.5 232.54,-93.5"/>
</g>
<!-- AB -->
<g id="node7" class="node disabled">
<title>AB</title>
<path fill="#ffffff" stroke="#d0dce3" d="M305.1,-36C305.1,-36 275.1,-36 275.1,-36 269.1,-36 263.1,-30 263.1,-24 263.1,-24 263.1,-12 263.1,-12 263.1,-6 269.1,0 275.1,0 275.1,0 305.1,0 305.1,0 311.1,0 317.1,-6 317.1,-12 317.1,-12 317.1,-24 317.1,-24 317.1,-30 311.1,-36 305.1,-36"/>
<text text-anchor="middle" x="290.1" y="-14.3" font-family="Inter,Arial" font-size="14.00" fill="#d0dce3">A×B</text>
</g>
<!-- FA&#45;&gt;AB -->
<g id="edge7" class="edge disabled">
<title>FA&#45;&gt;AB</title>
<path fill="none" stroke="#d0dce3" d="M205.83,-72.75C220.46,-63.14 238.85,-51.04 254.63,-40.67"/>
<polygon fill="#d0dce3" stroke="#d0dce3" points="256.65,-43.52 263.09,-35.11 252.81,-37.67 256.65,-43.52"/>
</g>
<!-- FB&#45;&gt;XX -->
<g id="edge8" class="edge disabled">
<title>FB&#45;&gt;XX</title>
<path fill="none" stroke="#d0dce3" d="M205.83,-35.25C219.9,-44.5 237.45,-56.04 252.81,-66.14"/>
<polygon fill="#d0dce3" stroke="#d0dce3" points="251.28,-69.32 261.56,-71.89 255.13,-63.47 251.28,-69.32"/>
</g>
<!-- FB&#45;&gt;AB -->
<g id="edge9" class="edge disabled">
<title>FB&#45;&gt;AB</title>
<path fill="none" stroke="#d0dce3" d="M205.83,-18C219.91,-18 237.49,-18 252.87,-18"/>
<polygon fill="#d0dce3" stroke="#d0dce3" points="253.09,-21.5 263.09,-18 253.09,-14.5 253.09,-21.5"/>
</g>
<!-- XX&#45;&gt;AB -->
<!-- X -->
<!-- XX&#45;&gt;X -->
<!-- C -->
<g id="node9" class="node">
<title>C</title>
<path fill="#ffffff" stroke="#586e75" d="M456.6,-36C456.6,-36 426.6,-36 426.6,-36 420.6,-36 414.6,-30 414.6,-24 414.6,-24 414.6,-12 414.6,-12 414.6,-6 420.6,0 426.6,0 426.6,0 456.6,0 456.6,0 462.6,0 468.6,-6 468.6,-12 468.6,-12 468.6,-24 468.6,-24 468.6,-30 462.6,-36 456.6,-36"/>
<text text-anchor="middle" x="441.6" y="-14.3" font-family="Inter,Arial" font-size="14.00" fill="#586e75">C</text>
</g>
<!-- AB&#45;&gt;C -->
<g id="edge11" class="edge disabled">
<title>AB&#45;&gt;C</title>
<path fill="none" stroke="#d0dce3" d="M317.14,-18C341.22,-18 377.24,-18 404.16,-18"/>
<polygon fill="#d0dce3" stroke="#d0dce3" points="404.36,-21.5 414.36,-18 404.36,-14.5 404.36,-21.5"/>
<text text-anchor="middle" x="376.1" y="-21.2" font-family="Inter,Arial" font-size="11.00" fill="#d0dce3">f</text>
</g>
<!-- FC -->
<g id="node8" class="node goal">
<title>FC</title>
<path fill="#586e75" stroke="#586e75" d="M547.6,-71C547.6,-71 517.6,-71 517.6,-71 511.6,-71 505.6,-65 505.6,-59 505.6,-59 505.6,-47 505.6,-47 505.6,-41 511.6,-35 517.6,-35 517.6,-35 547.6,-35 547.6,-35 553.6,-35 559.6,-41 559.6,-47 559.6,-47 559.6,-59 559.6,-59 559.6,-65 553.6,-71 547.6,-71"/>
<text text-anchor="middle" x="532.6" y="-49.3" font-family="Inter,Arial" font-size="14.00" fill="#ffffff">F[C]</text>
</g>
<!-- FC&#45;&gt;Goal -->
<g id="edge15" class="edge goal">
<title>FC&#45;&gt;Goal</title>
<path fill="none" stroke="#586e75" stroke-width="2" d="M559.92,-53C569.17,-53 579.07,-53 586.37,-53"/>
<polygon fill="#586e75" stroke="#586e75" stroke-width="2" points="586.51,-56.5 596.51,-53 586.51,-49.5 586.51,-56.5"/>
</g>
<!-- C&#45;&gt;FC -->
<!-- X&#45;&gt;FC -->
<!-- X&#45;&gt;C -->
</g>
</svg>
