<?xml version="1.0" encoding="UTF-8" standalone="no"?>
<!DOCTYPE svg PUBLIC "-//W3C//DTD SVG 1.1//EN"
 "http://www.w3.org/Graphics/SVG/1.1/DTD/svg11.dtd">
<!-- Generated by graphviz version 2.43.0 (0)
 -->
<!-- Title: %3 Pages: 1 -->
<svg width="585pt" height="98pt"
 viewBox="0.00 0.00 585.00 98.00" xmlns="http://www.w3.org/2000/svg" xmlns:xlink="http://www.w3.org/1999/xlink">
<g id="graph0" class="graph" transform="scale(1 1) rotate(0) translate(4 94)">
<title>%3</title>
<!-- Nothing -->
<g id="node1" class="node">
<title>Nothing</title>
<path fill="#ffffff" stroke="#586e75" d="M42,-62C42,-62 12,-62 12,-62 6,-62 0,-56 0,-50 0,-50 0,-38 0,-38 0,-32 6,-26 12,-26 12,-26 42,-26 42,-26 48,-26 54,-32 54,-38 54,-38 54,-50 54,-50 54,-56 48,-62 42,-62"/>
<text text-anchor="middle" x="27" y="-40.3" font-family="Inter,Arial" font-size="14.00" fill="#586e75">∅</text>
</g>
<!-- Functor -->
<g id="node2" class="node impossible">
<title>Functor</title>
<path fill="none" stroke="#586e75" stroke-dasharray="5,2" d="M162,-62C162,-62 124,-62 124,-62 118,-62 112,-56 112,-50 112,-50 112,-38 112,-38 112,-32 118,-26 124,-26 124,-26 162,-26 162,-26 168,-26 174,-32 174,-38 174,-38 174,-50 174,-50 174,-56 168,-62 162,-62"/>
<text text-anchor="middle" x="143" y="-40.3" font-family="Inter,Arial" font-size="14.00" fill="#586e75">Functor</text>
</g>
<!-- Nothing&#45;&gt;Functor -->
<g id="edge1" class="edge impossible">
<title>Nothing&#45;&gt;Functor</title>
<path fill="none" stroke="#586e75" stroke-dasharray="1,5" d="M54.15,-44C68.28,-44 86.03,-44 101.87,-44"/>
<polygon fill="#586e75" stroke="#586e75" points="101.94,-47.5 111.94,-44 101.94,-40.5 101.94,-47.5"/>
<text text-anchor="middle" x="83" y="-47.2" font-family="Inter,Arial" font-size="11.00" fill="#586e75">map</text>
</g>
<!-- Apply -->
<!-- Functor&#45;&gt;Apply -->
<!-- Applicative -->
<!-- Apply&#45;&gt;Applicative -->
<!-- FlatMap -->
<!-- Apply&#45;&gt;FlatMap -->
<!-- Monad -->
<!-- Applicative&#45;&gt;Monad -->
<!-- FlatMap&#45;&gt;Monad -->
</g>
</svg>
