<?xml version="1.0" encoding="UTF-8" standalone="no"?>
<!DOCTYPE svg PUBLIC "-//W3C//DTD SVG 1.1//EN"
 "http://www.w3.org/Graphics/SVG/1.1/DTD/svg11.dtd">
<!-- Generated by graphviz version 2.43.0 (0)
 -->
<!-- Title: %3 Pages: 1 -->
<svg width="585pt" height="98pt"
 viewBox="0.00 0.00 585.00 98.00" xmlns="http://www.w3.org/2000/svg" xmlns:xlink="http://www.w3.org/1999/xlink">
<g id="graph0" class="graph" transform="scale(1 1) rotate(0) translate(4 94)">
<title>%3</title>
<!-- Nothing -->
<g id="node1" class="node disabled">
<title>Nothing</title>
<path fill="#ffffff" stroke="#d0dce3" d="M42,-62C42,-62 12,-62 12,-62 6,-62 0,-56 0,-50 0,-50 0,-38 0,-38 0,-32 6,-26 12,-26 12,-26 42,-26 42,-26 48,-26 54,-32 54,-38 54,-38 54,-50 54,-50 54,-56 48,-62 42,-62"/>
<text text-anchor="middle" x="27" y="-40.3" font-family="Inter,Arial" font-size="14.00" fill="#d0dce3">∅</text>
</g>
<!-- Functor -->
<g id="node2" class="node disabled">
<title>Functor</title>
<path fill="#ffffff" stroke="#d0dce3" d="M162,-62C162,-62 124,-62 124,-62 118,-62 112,-56 112,-50 112,-50 112,-38 112,-38 112,-32 118,-26 124,-26 124,-26 162,-26 162,-26 168,-26 174,-32 174,-38 174,-38 174,-50 174,-50 174,-56 168,-62 162,-62"/>
<text text-anchor="middle" x="143" y="-40.3" font-family="Inter,Arial" font-size="14.00" fill="#d0dce3">Functor</text>
</g>
<!-- Nothing&#45;&gt;Functor -->
<g id="edge1" class="edge disabled">
<title>Nothing&#45;&gt;Functor</title>
<path fill="none" stroke="#d0dce3" d="M54.15,-44C68.28,-44 86.03,-44 101.87,-44"/>
<polygon fill="#d0dce3" stroke="#d0dce3" points="101.94,-47.5 111.94,-44 101.94,-40.5 101.94,-47.5"/>
<text text-anchor="middle" x="83" y="-47.2" font-family="Inter,Arial" font-size="11.00" fill="#d0dce3">map</text>
</g>
<!-- Apply -->
<g id="node3" class="node disabled">
<title>Apply</title>
<path fill="#ffffff" stroke="#d0dce3" d="M280,-62C280,-62 250,-62 250,-62 244,-62 238,-56 238,-50 238,-50 238,-38 238,-38 238,-32 244,-26 250,-26 250,-26 280,-26 280,-26 286,-26 292,-32 292,-38 292,-38 292,-50 292,-50 292,-56 286,-62 280,-62"/>
<text text-anchor="middle" x="265" y="-40.3" font-family="Inter,Arial" font-size="14.00" fill="#d0dce3">Apply</text>
</g>
<!-- Functor&#45;&gt;Apply -->
<g id="edge2" class="edge disabled">
<title>Functor&#45;&gt;Apply</title>
<path fill="none" stroke="#d0dce3" d="M174.28,-44C190.5,-44 210.58,-44 227.64,-44"/>
<polygon fill="#d0dce3" stroke="#d0dce3" points="227.8,-47.5 237.8,-44 227.8,-40.5 227.8,-47.5"/>
<text text-anchor="middle" x="206" y="-47.2" font-family="Inter,Arial" font-size="11.00" fill="#d0dce3">map2</text>
</g>
<!-- Applicative -->
<g id="node4" class="node disabled">
<title>Applicative</title>
<path fill="#ffffff" stroke="#d0dce3" d="M434,-90C434,-90 376,-90 376,-90 370,-90 364,-84 364,-78 364,-78 364,-66 364,-66 364,-60 370,-54 376,-54 376,-54 434,-54 434,-54 440,-54 446,-60 446,-66 446,-66 446,-78 446,-78 446,-84 440,-90 434,-90"/>
<text text-anchor="middle" x="405" y="-68.3" font-family="Inter,Arial" font-size="14.00" fill="#d0dce3">Applicative</text>
</g>
<!-- Apply&#45;&gt;Applicative -->
<g id="edge3" class="edge disabled">
<title>Apply&#45;&gt;Applicative</title>
<path fill="none" stroke="#d0dce3" d="M292.28,-49.33C309.69,-52.86 333.07,-57.61 353.95,-61.84"/>
<polygon fill="#d0dce3" stroke="#d0dce3" points="353.46,-65.32 363.96,-63.88 354.86,-58.46 353.46,-65.32"/>
<text text-anchor="middle" x="328" y="-62.2" font-family="Inter,Arial" font-size="11.00" fill="#d0dce3">pure</text>
</g>
<!-- FlatMap -->
<g id="node5" class="node disabled">
<title>FlatMap</title>
<path fill="#ffffff" stroke="#d0dce3" d="M426,-36C426,-36 384,-36 384,-36 378,-36 372,-30 372,-24 372,-24 372,-12 372,-12 372,-6 378,0 384,0 384,0 426,0 426,0 432,0 438,-6 438,-12 438,-12 438,-24 438,-24 438,-30 432,-36 426,-36"/>
<text text-anchor="middle" x="405" y="-14.3" font-family="Inter,Arial" font-size="14.00" fill="#d0dce3">FlatMap</text>
</g>
<!-- Apply&#45;&gt;FlatMap -->
<g id="edge4" class="edge disabled">
<title>Apply&#45;&gt;FlatMap</title>
<path fill="none" stroke="#d0dce3" d="M292.44,-37C298.21,-35.58 304.29,-34.17 310,-33 326.74,-29.58 345.28,-26.48 361.44,-23.99"/>
<polygon fill="#d0dce3" stroke="#d0dce3" points="362.31,-27.4 371.68,-22.45 361.27,-20.48 362.31,-27.4"/>
<text text-anchor="middle" x="328" y="-36.2" font-family="Inter,Arial" font-size="11.00" fill="#d0dce3">flatMap</text>
</g>
<!-- Monad -->
<g id="node6" class="node">
<title>Monad</title>
<path fill="#ffffff" stroke="#586e75" d="M565,-62C565,-62 530,-62 530,-62 524,-62 518,-56 518,-50 518,-50 518,-38 518,-38 518,-32 524,-26 530,-26 530,-26 565,-26 565,-26 571,-26 577,-32 577,-38 577,-38 577,-50 577,-50 577,-56 571,-62 565,-62"/>
<text text-anchor="middle" x="547.5" y="-40.3" font-family="Inter,Arial" font-size="14.00" fill="#586e75">Monad</text>
</g>
<!-- Applicative&#45;&gt;Monad -->
<g id="edge5" class="edge disabled">
<title>Applicative&#45;&gt;Monad</title>
<path fill="none" stroke="#d0dce3" d="M446.26,-63.98C465.65,-60.11 488.78,-55.5 507.93,-51.69"/>
<polygon fill="#d0dce3" stroke="#d0dce3" points="508.71,-55.1 517.83,-49.71 507.34,-48.23 508.71,-55.1"/>
<text text-anchor="middle" x="482" y="-62.2" font-family="Inter,Arial" font-size="11.00" fill="#d0dce3">flatMap</text>
</g>
<!-- FlatMap&#45;&gt;Monad -->
<g id="edge6" class="edge disabled">
<title>FlatMap&#45;&gt;Monad</title>
<path fill="none" stroke="#d0dce3" d="M438.3,-22.55C456.48,-25.26 479.57,-28.96 500,-33 502.49,-33.49 505.05,-34.03 507.63,-34.58"/>
<polygon fill="#d0dce3" stroke="#d0dce3" points="507.03,-38.03 517.55,-36.8 508.56,-31.2 507.03,-38.03"/>
<text text-anchor="middle" x="482" y="-36.2" font-family="Inter,Arial" font-size="11.00" fill="#d0dce3">pure</text>
</g>
</g>
</svg>
